<svg xmlns="http://www.w3.org/2000/svg" width="49" height="42" fill="none"><path fill="#FF069C" d="M24.614 41.614 4.9 21.9C3.328 20.328 2.28 18.5 1.756 16.416a12.62 12.62 0 0 1 .019-6.213C2.299 8.133 3.34 6.33 4.9 4.795c1.598-1.572 3.42-2.614 5.465-3.125a12.245 12.245 0 0 1 6.155 0c2.058.524 3.887 1.566 5.485 3.125l2.608 2.532 2.608-2.532c1.61-1.56 3.438-2.601 5.484-3.125a12.17 12.17 0 0 1 6.136 0c2.059.511 3.887 1.553 5.485 3.125 1.56 1.535 2.601 3.337 3.125 5.408a12.47 12.47 0 0 1 0 6.213c-.51 2.084-1.553 3.912-3.125 5.485L24.614 41.614Z"/></svg>