<svg xmlns="http://www.w3.org/2000/svg" width="338" height="338" fill="none"><g filter="url(#a)" opacity=".8"><path stroke="#EFFFE2" stroke-linecap="round" stroke-width="4" d="M275 169A105.997 105.997 0 0 0 174.628 63.15a106 106 0 1 0 97.989 128.201"/></g><g filter="url(#b)"><path fill="#EFFFE2" d="M136.819 146.182V192h-9.687v-36.623h-.269l-10.492 6.577v-8.591l11.342-7.181h9.106Zm26.397 46.825c-3.848-.015-7.159-.962-9.933-2.842-2.759-1.879-4.885-4.601-6.376-8.165-1.477-3.565-2.207-7.853-2.193-12.864 0-4.997.739-9.255 2.215-12.775 1.492-3.52 3.617-6.197 6.376-8.031 2.775-1.85 6.078-2.775 9.911-2.775 3.833 0 7.129.925 9.889 2.775 2.774 1.849 4.907 4.534 6.398 8.054 1.492 3.504 2.23 7.755 2.215 12.752 0 5.026-.746 9.321-2.237 12.886-1.477 3.565-3.595 6.287-6.354 8.166-2.759 1.879-6.063 2.819-9.911 2.819Zm0-8.032c2.625 0 4.721-1.32 6.287-3.96 1.566-2.64 2.341-6.6 2.327-11.879 0-3.475-.358-6.369-1.074-8.681-.701-2.312-1.701-4.049-2.998-5.212-1.283-1.164-2.797-1.745-4.542-1.745-2.61 0-4.698 1.305-6.264 3.915-1.566 2.61-2.357 6.517-2.371 11.723 0 3.52.35 6.458 1.051 8.814.716 2.342 1.723 4.102 3.02 5.28 1.298 1.163 2.819 1.745 4.564 1.745Zm40.917 8.032c-3.848-.015-7.159-.962-9.933-2.842-2.759-1.879-4.885-4.601-6.376-8.165-1.477-3.565-2.207-7.853-2.193-12.864 0-4.997.739-9.255 2.215-12.775 1.492-3.52 3.617-6.197 6.376-8.031 2.775-1.85 6.078-2.775 9.911-2.775 3.833 0 7.13.925 9.889 2.775 2.774 1.849 4.907 4.534 6.398 8.054 1.492 3.504 2.23 7.755 2.215 12.752 0 5.026-.746 9.321-2.237 12.886-1.477 3.565-3.595 6.287-6.354 8.166-2.759 1.879-6.063 2.819-9.911 2.819Zm0-8.032c2.625 0 4.721-1.32 6.287-3.96 1.566-2.64 2.341-6.6 2.327-11.879 0-3.475-.358-6.369-1.074-8.681-.701-2.312-1.701-4.049-2.998-5.212-1.283-1.164-2.797-1.745-4.542-1.745-2.61 0-4.698 1.305-6.264 3.915-1.566 2.61-2.356 6.517-2.371 11.723 0 3.52.35 6.458 1.051 8.814.716 2.342 1.723 4.102 3.02 5.28 1.298 1.163 2.819 1.745 4.564 1.745Z"/></g><defs><filter id="a" width="338" height="338.001" x="0" y="0" color-interpolation-filters="sRGB" filterUnits="userSpaceOnUse"><feFlood flood-opacity="0" result="BackgroundImageFix"/><feColorMatrix in="SourceAlpha" result="hardAlpha" values="0 0 0 0 0 0 0 0 0 0 0 0 0 0 0 0 0 0 127 0"/><feOffset/><feGaussianBlur stdDeviation="30.5"/><feColorMatrix values="0 0 0 0 0.325621 0 0 0 0 0.983333 0 0 0 0 0.163889 0 0 0 1 0"/><feBlend in2="BackgroundImageFix" result="effect1_dropShadow_101_246"/><feColorMatrix in="SourceAlpha" result="hardAlpha" values="0 0 0 0 0 0 0 0 0 0 0 0 0 0 0 0 0 0 127 0"/><feOffset/><feGaussianBlur stdDeviation="21"/><feColorMatrix values="0 0 0 0 0.9125 0 0 0 0 0.880867 0 0 0 0 0.121667 0 0 0 1 0"/><feBlend in2="effect1_dropShadow_101_246" result="effect2_dropShadow_101_246"/><feColorMatrix in="SourceAlpha" result="hardAlpha" values="0 0 0 0 0 0 0 0 0 0 0 0 0 0 0 0 0 0 127 0"/><feOffset/><feGaussianBlur stdDeviation="6"/><feComposite in2="hardAlpha" operator="out"/><feColorMatrix values="0 0 0 0 0.32549 0 0 0 0 0.984314 0 0 0 0 0.164706 0 0 0 1 0"/><feBlend in2="effect2_dropShadow_101_246" result="effect3_dropShadow_101_246"/><feBlend in="SourceGraphic" in2="effect3_dropShadow_101_246" result="shape"/></filter><filter id="b" width="228.287" height="169.451" x="55.371" y="84.555" color-interpolation-filters="sRGB" filterUnits="userSpaceOnUse"><feFlood flood-opacity="0" result="BackgroundImageFix"/><feColorMatrix in="SourceAlpha" result="hardAlpha" values="0 0 0 0 0 0 0 0 0 0 0 0 0 0 0 0 0 0 127 0"/><feOffset/><feGaussianBlur stdDeviation="30.5"/><feColorMatrix values="0 0 0 0 0.325621 0 0 0 0 0.983333 0 0 0 0 0.163889 0 0 0 1 0"/><feBlend in2="BackgroundImageFix" result="effect1_dropShadow_101_246"/><feColorMatrix in="SourceAlpha" result="hardAlpha" values="0 0 0 0 0 0 0 0 0 0 0 0 0 0 0 0 0 0 127 0"/><feOffset/><feGaussianBlur stdDeviation="21"/><feColorMatrix values="0 0 0 0 0.9125 0 0 0 0 0.880867 0 0 0 0 0.121667 0 0 0 1 0"/><feBlend in2="effect1_dropShadow_101_246" result="effect2_dropShadow_101_246"/><feColorMatrix in="SourceAlpha" result="hardAlpha" values="0 0 0 0 0 0 0 0 0 0 0 0 0 0 0 0 0 0 127 0"/><feOffset/><feGaussianBlur stdDeviation="6"/><feComposite in2="hardAlpha" operator="out"/><feColorMatrix values="0 0 0 0 0.32549 0 0 0 0 0.984314 0 0 0 0 0.164706 0 0 0 1 0"/><feBlend in2="effect2_dropShadow_101_246" result="effect3_dropShadow_101_246"/><feBlend in="SourceGraphic" in2="effect3_dropShadow_101_246" result="shape"/></filter></defs></svg>